<?xml version="1.0" encoding="UTF-8"?>
<svg id="b" data-name="Layer 2" xmlns="http://www.w3.org/2000/svg" viewBox="0 0 334.03 268.9">
  <g id="c" data-name="Layer 1">
    <path d="M333.7,56.85c-.27,4.22-1.21,8.48-2.87,12.62l-69.46,172.75c-8.38,20.85-32.08,30.95-52.93,22.58-20.86-8.38-30.97-32.08-22.58-52.93L255.33,39.09c8.38-20.85,32.08-30.95,52.93-22.57,16.71,6.72,26.52,23.27,25.45,40.32Z" style="fill: #f8b916;"/>
    <path d="M89.83,9.82c18.99-12.02,44.13-6.38,56.15,12.6l114.86,181.32c12.03,18.99,6.38,44.13-12.6,56.15l-3.07,1.95c-18.98,12.03-44.12,6.39-56.15-12.6L74.16,67.91c-12.02-18.98-6.38-44.12,12.6-56.15l3.07-1.95Z" style="fill: #e94436;"/>
    <path d="M151.03,43.51c-.27,4.22-1.2,8.48-2.87,12.62L78.7,228.88c-8.38,20.85-32.08,30.95-52.93,22.58-20.86-8.38-30.96-32.08-22.58-52.93L72.66,25.77C81.04,4.92,104.74-5.18,125.59,3.2c16.71,6.72,26.52,23.27,25.45,40.31Z" style="fill: #557cbe;"/>
  </g>
  <g id="d" data-name="Layer 4">
    <path d="M116.9,135.18l31.68-78.3c8.47-20.93-1.64-44.77-22.57-53.23-10.42-4.22-21.56-3.83-31.17,.21l-10.72,6.6c-4.84,4.13-8.8,9.44-11.35,15.75l-9.13,22.57,53.26,86.39Z" style="fill: #286eb5;"/>
    <path d="M261.86,205.69l-45.02-71.07-38.91,96.78,12.41,19.59c11.38,17.96,35.16,23.3,53.13,11.92l6.47-4.1c17.96-11.38,23.3-35.16,11.92-53.13Z" style="fill: #e02926;"/>
  </g>
</svg>