<?xml version="1.0" encoding="utf-8"?>
<!-- Generator: Adobe Illustrator 27.0.0, SVG Export Plug-In . SVG Version: 6.00 Build 0)  -->
<svg version="1.1" xmlns="http://www.w3.org/2000/svg" xmlns:xlink="http://www.w3.org/1999/xlink" x="0px" y="0px"
	 viewBox="0 0 449.98 500" style="enable-background:new 0 0 449.98 500;" xml:space="preserve">
<style type="text/css">
	.st0{fill:#F8B916;}
	.st1{fill:#557CBE;}
	.st2{fill:#E94436;}
	.st3{fill:none;}
	.st4{fill:none;stroke:#000000;stroke-miterlimit:10;}
	.st5{fill:#3C6EB6;}
	.st6{fill:#286EB5;}
	.st7{fill:#E02926;}
</style>
<g id="Layer_1">
	<g id="XMLID_6_">
		<g>
			<path class="st0" d="M393.29,167.79c-0.27,4.22-1.21,8.48-2.87,12.62l-69.46,172.75c-8.38,20.85-32.08,30.95-52.93,22.58
				c-20.86-8.38-30.97-32.08-22.58-52.93l69.46-172.76c8.38-20.85,32.08-30.95,52.93-22.57
				C384.55,134.19,394.36,150.74,393.29,167.79z"/>
		</g>
	</g>
	<g id="XMLID_5_">
		<g>
			<path class="st2" d="M149.42,120.76c18.99-12.02,44.13-6.38,56.15,12.6l114.86,181.32c12.03,18.99,6.38,44.13-12.6,56.15
				l-3.07,1.95c-18.98,12.03-44.12,6.39-56.15-12.6L133.75,178.85c-12.02-18.98-6.38-44.12,12.6-56.15L149.42,120.76z"/>
		</g>
	</g>
	<g id="XMLID_4_">
		<g>
			<path class="st1" d="M210.62,154.45c-0.27,4.22-1.2,8.48-2.87,12.62l-69.46,172.75c-8.38,20.85-32.08,30.95-52.93,22.58
				c-20.86-8.38-30.96-32.08-22.58-52.93l69.46-172.76c8.38-20.85,32.08-30.95,52.93-22.57
				C201.88,120.86,211.69,137.41,210.62,154.45z"/>
		</g>
	</g>
</g>
<g id="Layer_2">
</g>
<g id="Layer_3">
</g>
<g id="Layer_4">
	<path class="st6" d="M176.49,246.12l31.68-78.3c8.47-20.93-1.64-44.77-22.57-53.23c-10.42-4.22-21.56-3.83-31.17,0.21l-10.72,6.6
		c-4.84,4.13-8.8,9.44-11.35,15.75l-9.13,22.57L176.49,246.12z"/>
	<path class="st7" d="M321.45,316.64l-45.02-71.07l-38.91,96.78l12.41,19.59c11.38,17.96,35.16,23.3,53.13,11.92l6.47-4.1
		C327.49,358.38,332.82,334.6,321.45,316.64z"/>
</g>
</svg>
